<?xml version="1.0" encoding="utf-8"?>
<!-- Generator: Adobe Illustrator 30.2.1, SVG Export Plug-In . SVG Version: 9.03 Build 0)  -->
<svg version="1.0" id="Livello_1" xmlns="http://www.w3.org/2000/svg" xmlns:xlink="http://www.w3.org/1999/xlink" x="0px" y="0px"
	 viewBox="0 0 541.45 140.61" style="enable-background:new 0 0 541.45 140.61;" xml:space="preserve">
<style type="text/css">
	.st0{display:none;}
	.st1{display:inline;}
	.st2{display:inline;clip-path:url(#SVGID_00000114755648228535247420000016972233497622760370_);}
	.st3{fill:#FFFFFF;}
	.st4{fill:#070402;}
	.st5{fill:#FAB438;}
</style>
<g class="st0">
	<defs>
		<rect id="SVGID_1_" x="-302.43" y="-605.69" width="1079.47" height="1349.33"/>
	</defs>
	<clipPath id="SVGID_00000041285691446997792780000007173926911677493417_" class="st1">
		<use xlink:href="#SVGID_1_"  style="overflow:visible;"/>
	</clipPath>
	<g style="display:inline;clip-path:url(#SVGID_00000041285691446997792780000007173926911677493417_);">
		<path class="st3" d="M-302.43-605.69H777.03V743.64H-302.43V-605.69z"/>
		<path class="st4" d="M-302.43-605.69H777.03V743.64H-302.43V-605.69z"/>
	</g>
</g>
<g>
	<g transform="translate(232.268727, 537.924936)">
		<g>
			<path class="st5" d="M-162.78-501.41c0,0.35-0.89,0.89-2.67,1.6l-1.99,2.53c-5.42-5.33-10.22-7.99-14.4-7.99
				c-5.24,0-9.77,2.75-13.59,8.26l1.07,5.73l2.53,3.33l8.66,5.6l3.07,3.46l4.27,2.8l1.46,2.27l2.93,3.2l2,6.67l2.13,5.73
				c0.54,1.51,0.8,3.02,0.8,4.53c0,4.8-2.18,9.06-6.53,12.79c-4.35,3.73-8.84,5.6-13.46,5.6c-3.82,0-7.82-0.45-11.99-1.33
				l-5.46-1.47l-1.86-1.99c-3.73-2.05-5.6-4.31-5.6-6.8c0-4.09,1.02-6.13,3.07-6.13c0.44,0,1.38,0.58,2.8,1.73
				c1.69,1.42,3.51,2.49,5.46,3.2c3.02,1.16,6.66,1.73,10.93,1.73c3.73,0,6.82-1.11,9.26-3.33c2.44-2.22,3.67-5.06,3.67-8.53
				c0-1.78-0.49-3.6-1.47-5.46l-2.27-1.73l-3.46-4.93l-4.53-2.4c-3.82-2.05-7.33-5.02-10.53-8.93c-3.73-4.62-5.6-9.02-5.6-13.2
				c0-5.15,1.96-9.59,5.86-13.32l5.6-2.93l2.8-1.6c2.31-0.44,4.27-0.67,5.86-0.67c6.31,0,11.42,1.09,15.32,3.27
				C-164.73-507.96-162.78-505.05-162.78-501.41z"/>
		</g>
	</g>
</g>
<g>
	<g transform="translate(307.529319, 537.924936)">
		<g>
			<path class="st5" d="M-118.77-486.75c0,11.19-2.31,21.46-6.93,30.79l-0.93,3.2l-7.06,8.8c-6.58,6.75-14.57,10.12-23.99,10.12
				c-3.11,0-6.33-0.53-9.66-1.6c-3.33-1.07-5.48-2.27-6.46-3.6l-3.73-4.93l-1.73-1.07c-1.51-0.89-2.91-3.82-4.2-8.8
				c-1.29-4.97-1.93-10.04-1.93-15.19c0-11.99,3.73-21.99,11.19-29.98l1.47-2.4l2.8-2.27l2.93-3.2l2.8-0.67l1.73-1.2
				c7.55-3.2,14.53-4.8,20.92-4.8c4.44,0,9.35,2.98,14.72,8.93C-121.46-498.66-118.77-492.71-118.77-486.75z M-127.83-483.42
				c0-8.71-2.4-13.95-7.2-15.72l-3.46-0.27l-5.46-2.66c-3.91-0.35-6.44-0.54-7.6-0.54c-6.57,0-12.97,4.44-19.19,13.33
				c-4.09,5.86-6.13,11.51-6.13,16.93c0,10.3,1.48,17.61,4.46,21.92c2.97,4.31,7.97,6.46,14.99,6.46c5.86,0,10.89-1.78,15.06-5.33
				l2.4-3.86l3.86-3.33l1.73-3.06l1.73-1.86C-129.42-470.93-127.83-478.27-127.83-483.42z"/>
		</g>
	</g>
</g>
<g>
	<g transform="translate(396.782467, 537.924936)">
		<g>
			<path class="st5" d="M-103.14-435.31c0,2.75-1.38,4.13-4.13,4.13c-0.44,0-1.46-0.22-3.06-0.67c-1.6-0.44-4.27-0.67-8-0.67
				c-3.2,0-7.73-0.05-13.59-0.14l-3.07,0.94l-8.26-1.6l-5.2,0.54c-1.42,0.18-2.31-1.2-2.67-4.13c-0.18-1.24-0.22-2.76-0.14-4.53
				l-1.2-7.46l1.33-20.12l1.6-4.27c0.44-4.35,0.67-9.15,0.67-14.39c0-6.48-0.62-12.17-1.86-17.06l0.8-3.86l0.27-2.27
				c0.18-1.69,1.69-2.89,4.53-3.6l1.33,1.86l2.14,1.2l0.13,3.2c0.27,1.86,0.4,3.2,0.4,3.99c0,0.45-0.09,1.82-0.27,4.14
				c-0.18,2.31-0.27,4.4-0.27,6.26c0,0.09,0.18,2.71,0.53,7.86c0.18,3.2,0.09,6.08-0.27,8.66c-0.35,2.93-0.93,7.02-1.73,12.26
				l0.27,8.8l0.54,5.99l-0.4,2.8c1.69,3.82,3.29,5.69,4.8,5.6l13.19-0.53c0.89,0,2.31,0.29,4.27,0.86s3.51,0.86,4.67,0.86
				c1.06,0,2.4-0.27,3.99-0.8c1.6-0.54,2.89-0.8,3.86-0.8c1.42,0,2.58,0.82,3.46,2.47C-103.58-438.13-103.14-436.64-103.14-435.31z"
				/>
		</g>
	</g>
</g>
<g>
	<g transform="translate(473.442313, 537.924936)">
		<g>
			<path class="st5" d="M-71.06-506.61c-2.04,2.93-4.04,4.4-5.99,4.4c-0.45,0-1.69-0.2-3.73-0.6c-2.04-0.4-3.38-0.6-3.99-0.6
				l-9.46,0.13l-2.53-1.33h-5.2l-2.93-0.27c-5.69-0.53-8.57,0.84-8.66,4.14l-0.14,4.8l-1.6,3.46l-0.8,8.26
				c-0.27,3.2,0,5.51,0.8,6.93c0.8,1.07,1.91,1.51,3.33,1.33l6.26-0.93l3.47,0.27l4.27-1.73l6.4,0.67c1.51,0.18,2.84,0.84,3.99,2
				c1.16,1.16,1.73,2.49,1.73,4c0,1.15-0.58,2.22-1.73,3.2c-1.15,0.97-2.13,1.42-2.93,1.33l-6.53-0.8l-14.93,0.8l-2.67,0.67
				l-0.93,1.73l-2.8,2.4l-0.93,19.05c0,0.36-0.22,1.4-0.67,3.14c-0.45,1.73-0.67,3.22-0.67,4.46c0,3.82,1.24,5.64,3.73,5.46
				c4-0.44,6.84-0.67,8.53-0.67c3.73,0,7.55-0.14,11.46-0.4l5.73-2.27l2.93,0.27l5.2-0.27c1.51-0.09,3.02,0.45,4.53,1.6
				c1.51,1.16,2.27,2.14,2.27,2.93c0,0.8-0.62,1.73-1.86,2.8c-1.24,1.06-2.13,1.55-2.67,1.46l-2.4-0.27l-3.07,1.73l-18.39,0.67
				c-11.46,2.67-18.21,4-20.26,4c-3.38,0-4.97-2-4.8-5.99l0.67-15.46l1.6-4.14l0.93-12.79l1.07-2.4l0.4-12.26l2.67-17.59l0.67-16.79
				c0.09-2.04,0.71-3.78,1.86-5.2c1.16-1.42,2.62-2.09,4.4-2l4.26,0.27l2.54-0.67l5.46,1.06l4.4-0.67h11.19l7.46,0.8l7.2-0.27
				c0.53,0,1.04,0.44,1.53,1.33c0.49,0.89,0.73,1.86,0.73,2.93C-70.66-507.76-70.79-507.14-71.06-506.61z"/>
		</g>
	</g>
</g>
<g>
	<g transform="translate(620.502149, 474.071257)">
		<g>
			<path class="st5" d="M-178.62-437.14c0-1.24,0.84-2.91,2.53-4.99c1.69-2.09,3.06-3.13,4.13-3.13c0.8,0,2,0.76,3.6,2.27l1.2,3.59
				l-0.4,5.33l1.47,3.86c0.71,1.78,1.69,4.57,2.93,8.4c2.04,9.59,4.71,14.39,7.99,14.39c0.53,0,2.97-0.44,7.33-1.33
				c4.35-0.89,7.78-1.33,10.26-1.33c4.62,0,7.46-1.2,8.53-3.59l2-4.4l0.67-3.6l1.73-2.93l1.07-3.6l3.6-4.4l3.33-8.79
				c0.36-0.98,1.07-1.82,2.14-2.54c1.07-0.71,1.91-1.06,2.53-1.06c0.98,0,2.02,0.6,3.13,1.8c1.11,1.2,1.67,2.42,1.67,3.67
				c0,2.48-1.73,6.4-5.2,11.72c-0.35,1.87-1.16,4.71-2.4,8.53c-0.98,2.31-2.58,5.29-4.8,8.93l-6.4,13.06l-3.86,11.19l-2.13,3.6
				l-4.8,11.19c-0.98,2.4-2.07,4.78-3.27,7.13c-1.2,2.35-2.86,3.53-5,3.53c-1.86,0-3.33-0.62-4.4-1.86
				c-1.07-1.24-2.31-3.64-3.73-7.2l-9.46-22.92l-0.8-4.8l-6.8-15.32c-0.71-0.8-1.51-2.05-2.4-3.73c-0.44-2.84-1.38-6.8-2.8-11.86
				C-177.56-433.23-178.62-436.16-178.62-437.14z M-154.37-394.76c0,1.07,0.54,3.02,1.6,5.86l1.47,2.27l1.33,4.8
				c0.27,2.31,1.64,3.46,4.13,3.46c1.86,0,3.86-2.13,5.99-6.4c2.05-3.91,3.07-7.06,3.07-9.46c0-3.46-1.24-5.15-3.73-5.06l-9.99,0.4
				c-0.62,0-1.42,0.4-2.4,1.2C-153.88-396.89-154.37-395.92-154.37-394.76z"/>
		</g>
	</g>
</g>
</svg>
