<?xml version="1.0" encoding="UTF-8"?>
<svg id="Livello_1" xmlns="http://www.w3.org/2000/svg" version="1.1" viewBox="0 0 796.13 695">
  <!-- Generator: Adobe Illustrator 30.2.1, SVG Export Plug-In . SVG Version: 2.1.1 Build 1)  -->
  <defs>
    <style>
      .st0 {
        fill: #fff;
      }

      .st1 {
        fill: #e7e3dd;
      }
    </style>
  </defs>
  <path class="st0" d="M233.59,476.06l26.7,26.5c7.63,6.62,13.05,14.45,16.66,23.49,3.61,8.83,5.42,17.66,5.42,26.5s-1.61,16.66-4.82,24.09c-3.21,7.43-7.83,13.45-14.05,18.07-6.22,4.62-14.05,6.83-23.29,6.83s-12.04-2.01-16.66-5.82-8.43-8.03-11.44-12.65l-.6-.6c0-.4-.4-.6-.4-.8h0c-.6-.2-1,.6-1.41,2.41s-.6,3.81-.6,6.22,0,4.42-.2,6.22v2.61h-3.61v-71.66h5.02c0,1,0,3.81.4,8.63.2,4.82.8,10.64,1.81,17.26.8,6.62,2.41,13.25,4.62,19.87,2.21,6.62,5.22,12.24,9.03,16.46,3.81,4.42,8.63,6.62,14.65,6.62s12.24-3.01,17.06-9.23c5.02-6.22,7.43-16.46,7.43-30.91s-1-13.85-2.81-18.67-4.01-8.63-6.62-11.64-5.22-5.62-7.63-7.63c-.6-.6-1-1-1.61-1.41s-1-1-1.61-1.41l-19.67-19.67c-5.62-5.02-9.84-11.24-12.65-18.27-2.81-7.03-4.22-14.05-4.22-21.08s1.41-14.25,4.01-20.68c2.81-6.42,6.83-11.64,12.04-15.66,5.42-4.01,11.84-6.02,19.87-6.02s12.04,1.81,16.46,5.62,8.03,7.83,10.84,12.45c.4.6.6,1,.8,1.2,0,.2.2.4.2.4.6,0,1-.8,1.41-2.61s.6-3.81.6-6.22,0-4.42.2-6.22v-2.61h3.81v71.86h-5.02v-.6c0-1,0-4.01-.4-9.03-.2-5.02-.8-10.84-1.61-17.46-.8-6.62-2.41-13.25-4.42-19.67s-5.02-11.64-8.63-16.06c-3.61-4.22-8.43-6.42-14.25-6.42s-9.84,3.01-13.65,9.03c-3.81,6.02-5.82,13.45-5.82,22.28s1,12.85,3.01,17.06c2.01,4.01,4.01,7.03,5.82,9.03h-.2Z"/>
  <path class="st0" d="M277.95,415.24h65.84v54.4h-3.61v-5.02c0-3.21-.4-7.43-.8-12.45s-1-9.84-2.01-14.85c-.8-5.02-2.21-9.03-4.01-12.45s-4.01-5.02-6.62-5.02h-1.61c-1.41,1.2-2.81,3.41-4.42,6.62-1.41,3.21-2.21,7.83-2.21,14.05v132.89c0,6.83.8,11.84,2.61,15.06,1.81,3.21,3.41,5.42,5.22,6.42,1.81,1,2.61,1.61,2.61,1.61v2.41h-36.53v-2.41s.8-.6,2.61-1.61c1.81-1,3.41-3.21,5.22-6.42,1.81-3.21,2.61-8.23,2.61-15.06v-132.89c0-6.22-.8-11.04-2.21-14.05-1.41-3.21-3.01-5.42-4.42-6.62h-1.61c-2.61,0-4.82,1.61-6.62,5.02-1.81,3.41-3.01,7.43-4.01,12.45-.8,4.82-1.61,9.84-2.01,14.85s-.6,9.23-.8,12.45v5.02h-3.61v-54.4h.4,0Z"/>
  <path class="st0" d="M411.04,598.91h-71.66v-2.61s.8-.4,2.61-1.41c1.81-1,3.41-3.01,5.22-6.42,1.81-3.21,2.61-8.23,2.61-15.06v-132.89c0-7.23-.8-12.24-2.61-15.46-1.81-3.21-3.41-5.22-5.22-6.02-1.81-.8-2.61-1.41-2.61-1.41v-2.61h71.66v54.4h-3.61v-5.02c0-3.21-.4-7.43-.8-12.45-.4-5.02-1-9.84-2.01-14.85-.8-5.02-2.21-9.03-4.01-12.45-1.81-3.41-4.01-5.02-6.62-5.02h-27.5v61.22h21.48c2.01,0,3.41-1.81,4.62-5.42,1.2-3.61,2.01-7.63,2.61-12.45.6-4.62.8-8.83,1-12.24v-5.42h3.61v75.68h-3.61v-7.83c0-3.81-.4-7.83-.8-12.04s-1.2-8.03-2.41-11.04c-1.2-3.01-2.61-4.62-4.62-4.62h-21.88v108.4h27.5c2.61,0,4.82-1.61,6.62-5.02,1.81-3.41,3.01-7.43,4.01-12.45.8-5.02,1.61-9.84,2.01-14.85s.8-9.23.8-12.45v-5.02h3.61v54.8h0Z"/>
  <path class="st0" d="M468.05,544.71h3.61v54.4h-65.04v-2.61s.8-.4,2.61-1.41c1.81-1,3.41-3.01,5.22-6.42,1.81-3.21,2.61-8.23,2.61-15.06v-132.89c0-6.83-.8-11.84-2.61-15.06-1.81-3.21-3.41-5.42-5.22-6.42-1.81-1-2.61-1.61-2.61-1.61v-2.41h37.34v2.41l-2.61,1.81c-1.61,1.2-3.41,3.21-5.02,6.22-1.81,3.01-2.61,7.43-2.61,13.05v155.77h20.68c2.81,0,5.02-1.61,6.62-5.02s3.01-7.43,4.01-12.45,1.61-9.84,2.01-14.85c.4-5.02.8-9.23.8-12.45v-5.02h.2Z"/>
  <path class="st0" d="M528.67,544.71h3.61v54.4h-65.04v-2.61s.8-.4,2.61-1.41,3.41-3.01,5.22-6.42c1.81-3.21,2.61-8.23,2.61-15.06v-132.89c0-6.83-.8-11.84-2.61-15.06s-3.41-5.42-5.22-6.42-2.61-1.61-2.61-1.61v-2.41h37.34v2.41l-2.61,1.81c-1.61,1.2-3.41,3.21-5.02,6.22-1.81,3.01-2.61,7.43-2.61,13.05v155.77h20.68c2.81,0,5.02-1.61,6.62-5.02s3.01-7.43,4.01-12.45,1.61-9.84,2.01-14.85c.4-5.02.8-9.23.8-12.45v-5.02h.2Z"/>
  <path class="st0" d="M599.53,598.91h-71.66v-2.61s.8-.4,2.61-1.41,3.41-3.01,5.22-6.42c1.81-3.21,2.61-8.23,2.61-15.06v-132.89c0-7.23-.8-12.24-2.61-15.46s-3.41-5.22-5.22-6.02-2.61-1.41-2.61-1.41v-2.61h71.66v54.4h-3.61v-5.02c0-3.21-.4-7.43-.8-12.45-.4-5.02-1-9.84-2.01-14.85-.8-5.02-2.21-9.03-4.01-12.45s-4.01-5.02-6.62-5.02h-27.5v61.22h21.48c2.01,0,3.41-1.81,4.62-5.42,1.2-3.61,2.01-7.63,2.61-12.45.6-4.62.8-8.83,1-12.24v-5.42h3.61v75.68h-3.61v-7.83c0-3.81-.4-7.83-.8-12.04-.4-4.22-1.2-8.03-2.41-11.04s-2.61-4.62-4.62-4.62h-21.88v108.4h27.5c2.61,0,4.82-1.61,6.62-5.02s3.01-7.43,4.01-12.45c.8-5.02,1.61-9.84,2.01-14.85s.8-9.23.8-12.45v-5.02h3.61v54.8h0Z"/>
  <path class="st0" d="M258.28,142.44h69.05v57.81h-4.01v-5.22c0-3.61-.4-8.03-.8-13.25s-1.2-10.64-2.01-15.86c-1-5.22-2.21-9.64-4.22-13.05-1.81-3.61-4.22-5.42-7.03-5.42h-22.08v65.04h15.66c2.01,0,3.61-1.81,4.82-5.62,1.2-3.81,2.01-8.23,2.61-13.05.4-5.02.8-9.23.8-13.05v-5.82h4.22v80.5h-4.22v-2.81c0-2.01,0-5.02-.4-8.83,0-3.81-.6-7.83-1-11.64-.6-4.01-1.41-7.43-2.61-10.24-1.2-2.81-2.61-4.22-4.42-4.22h-16.06v93.34c0,7.23,1,12.65,2.81,16.06s3.81,5.62,5.62,6.83c1.81,1,2.81,1.61,2.81,1.61v2.81h-39.95v-2.81s1-.4,2.81-1.61c1.81-1,3.61-3.21,5.62-6.83,1.81-3.41,2.81-8.83,2.81-16.06v-141.32c0-7.63-1-13.05-2.81-16.46s-3.61-5.42-5.62-6.42c-1.81-1-2.81-1.41-2.81-1.41v-2.81h.4v-.2Z"/>
  <path class="st0" d="M322.52,144.84v-2.61h39.95v2.61s-1,.6-2.81,1.61c-1.81,1.2-3.81,3.41-5.62,6.83-1.81,3.41-2.81,8.83-2.81,16.06v141.32c0,7.23,1,12.65,2.81,16.06s3.81,5.62,5.62,6.83c1.81,1,2.81,1.61,2.81,1.61v2.81h-39.95v-2.81s1-.4,2.81-1.61c1.81-1,3.61-3.21,5.62-6.83,1.81-3.41,2.81-8.83,2.81-16.06v-141.32c0-7.23-1-12.65-2.81-16.06s-3.61-5.82-5.62-6.83c-1.81-1.2-2.81-1.61-2.81-1.61h0Z"/>
  <path class="st0" d="M440.35,315.67l-.8,1.61c-3.61,5.82-7.83,10.64-13.05,14.65-5.02,3.81-11.64,5.82-19.47,5.82s-16.46-2.41-22.28-7.03c-6.02-4.82-10.64-11.04-14.45-18.67-3.61-7.63-6.42-15.86-8.23-24.89-1.81-9.03-3.01-17.87-3.61-26.5s-.8-16.26-.8-22.68,0-7.03.4-12.65c.2-5.62,1-12.24,2.01-19.47,1-7.23,2.61-14.65,4.62-21.88,2.21-7.43,5.02-14.25,8.63-20.48,3.61-6.42,8.23-11.44,13.65-15.26s12.24-5.82,20.07-5.82,13.45,1.81,18.67,5.22c5.22,3.41,9.43,7.83,13.05,13.25.4,0,.6.4.6.6h0c.6,0,1-.8,1.61-2.61.4-2.01.8-4.22,1.2-6.62.2-2.41.4-4.62.6-6.62v-3.01h4.01v76.68h-5.42c0-6.42-.6-13.65-1.41-21.68-.8-7.83-1.81-14.85-3.21-20.88-2.41-9.23-6.42-16.26-11.84-21.48-5.42-5.22-11.24-7.83-17.66-7.83s-10.84,2.41-14.65,7.43c-3.81,5.02-6.83,11.24-9.03,19.07-2.21,7.83-3.81,16.06-5.02,24.69-1.2,8.63-1.81,16.66-2.01,24.09s-.4,13.25-.4,17.26,0,9.84.4,17.46c.2,7.63,1,15.66,2.01,24.09,1,8.63,2.61,16.66,4.82,24.69,2.21,7.83,5.22,14.25,9.23,19.07,4.01,5.02,8.83,7.43,14.85,7.43s11.04-2.41,15.46-7.03c4.22-4.82,7.83-10.84,10.64-18.27,2.81-7.43,4.62-15.46,5.22-23.69h.6c-1.81-1.41-3.61-3.21-5.02-5.02-3.21-4.01-6.62-8.63-10.44-13.45-3.81-4.82-7.63-9.43-11.64-14.05-4.01-4.42-7.83-8.03-11.64-10.84-3.81-2.81-7.03-4.22-10.04-4.22s-3.61.6-5.02,2.01h-1.41s.8-1.2,2.41-3.41c1.61-2.21,3.81-4.42,6.62-6.62,2.81-2.21,6.22-3.41,10.04-3.41h.2c4.62,0,9.43,1.81,14.25,5.62,4.82,3.81,9.43,8.03,13.65,13.05s7.83,9.43,10.64,13.05c.8,1.2,1.81,2.41,2.41,3.41.8,1,1.41,1.61,1.81,2.21h1.41v76.08h-3.61v-3.41c0-2.21,0-4.82-.4-7.83,0-3.01-.4-5.62-.8-7.83-.4-2.21-1-3.41-2.01-3.41h-.4,0Z"/>
  <path class="st0" d="M507.6,280.14h3.81v57.81h-69.25v-2.81s1-.4,2.81-1.61c1.81-1,3.61-3.21,5.62-6.83,1.81-3.41,2.81-8.83,2.81-16.06v-141.32c0-7.23-1-12.65-2.81-16.06s-3.61-5.82-5.62-6.83c-1.81-1.2-2.81-1.61-2.81-1.61v-2.61h39.75v2.61s-.8.6-2.61,1.81-3.61,3.41-5.42,6.62c-1.81,3.21-2.81,7.83-2.81,13.85v165.61h22.08c3.01,0,5.42-1.81,7.03-5.22,1.81-3.61,3.21-8.03,4.22-13.05,1-5.22,1.81-10.44,2.21-15.86.4-5.22.8-9.64.8-13.25v-5.42h.2v.2Z"/>
  <path class="st0" d="M506.79,144.84v-2.61h39.95v2.61s-1,.6-2.81,1.61c-1.81,1.2-3.81,3.41-5.62,6.83s-2.81,8.83-2.81,16.06v141.32c0,7.23,1,12.65,2.81,16.06s3.81,5.62,5.62,6.83c1.81,1,2.81,1.61,2.81,1.61v2.81h-39.95v-2.81s1-.4,2.81-1.61c1.81-1,3.61-3.21,5.62-6.83,1.81-3.41,2.81-8.83,2.81-16.06v-141.32c0-7.23-1-12.65-2.81-16.06s-3.61-5.82-5.62-6.83c-1.81-1.2-2.81-1.61-2.81-1.61h0Z"/>
  <path class="st1" d="M324.12,385.33c1.2.6,2.01,1.41,2.81,2.41.8,1.2,1.41,2.41,1.41,3.81s0,2.41-.6,3.61h0c-2.01,4.82-4.22,9.43-6.42,14.05-2.41,4.82-5.02,9.23-7.83,13.25-3.01,4.42-6.22,7.83-10.04,10.64-4.01,3.21-8.63,5.02-13.45,5.42-6.62.6-12.24-.6-16.66-3.81-4.82-3.41-7.63-8.43-8.43-15.26v-2.41l5.82-.6,5.02,3.01c-3.61,6.42-7.63,11.44-11.84,15.46-4.82,4.62-9.84,7.03-15.26,7.63h-.6c-5.02.6-9.43-.2-12.85-2.41-3.41-2.01-6.02-4.82-7.83-8.43-1.41-3.21-2.41-6.42-2.81-10.04v-1.81c-.2-1-.2-2.01-.2-2.81l5.82.6h-5.82c0-5.22,1-10.44,2.41-16.26,1.41-5.62,3.61-11.24,6.22-16.86,4.22-8.43,8.23-15.26,12.45-20.48,4.42-5.42,8.63-9.23,13.05-11.84,4.42-2.61,8.83-4.22,12.85-4.62h5.22c1.61,0,3.01.4,4.42.8,3.81,1,6.62,3.21,8.63,6.42,1.61,2.61,2.61,5.82,3.01,9.64,0,1.81.2,4.01,0,6.42h-5.82c0-.2-5.42-2.61-5.42-2.61l27.5-63.43,27.1-2.81-42.96,97.76c-1.81,4.42-3.41,8.43-4.62,12.04-1,2.81-1.41,5.42-1,7.83,0,.4.4,1.2.8,1.81h1.61-.6.6c1,0,2.21-.6,3.61-1.41,1.61-.8,3.21-2.41,5.02-4.82h0c2.61-3.21,5.22-7.03,7.63-11.44,2.61-4.82,5.02-9.84,7.23-15.26l5.42,2.41-5.62-2.01c.6-1.41,1.41-2.61,2.81-3.61,1.2-.8,2.41-1.2,3.81-1.41,1.41,0,2.61,0,3.61.4h.4l.4.4v.6h0ZM318.1,395.56l3.01-5.22-2.01,5.62c.6.2,1.2.4,1.81.2.6,0,1.2-.2,1.61-.6.8-.6,1.2-1.2,1.61-2.01h0c-2.41,6.02-5.02,11.24-7.63,16.26-2.81,5.42-6.02,9.84-9.23,13.65l-4.42-4.01,4.62,3.81c-2.81,3.41-5.62,6.02-8.43,7.63-3.01,1.61-5.62,2.61-8.23,2.81h-3.61l1.2-5.82-.4,5.82c-4.22-.4-7.43-2.01-9.64-5.22-1.61-2.41-2.61-4.82-2.81-7.23-.4-4.22,0-8.63,1.61-13.05,1.41-3.81,3.01-8.03,5.02-12.85l38.94-88.32,5.42,2.41.6,5.82-13.45,1.41-.6-5.82,5.42,2.41-26.1,60.22-11.24-2.61v-4.62c-.2-2.01-.6-3.61-1.41-4.82-.4-.6-.8-1-1.61-1.2-.8-.2-1.61-.4-2.61-.4h-2.61c-2.41.2-5.02,1.2-8.03,3.01-3.21,1.81-6.42,4.82-9.84,9.03-3.61,4.42-7.23,10.44-11.04,18.27-2.41,4.82-4.22,9.84-5.42,14.65-1.2,4.82-2.01,9.23-2.01,13.45h0v2.81c.4,2.21,1,4.22,1.81,6.02.6,1.41,1.81,2.61,3.21,3.41,1.2.8,3.21,1,5.62.8h.6c2.81-.4,5.42-1.81,8.43-4.42,3.41-3.21,6.62-7.43,9.84-12.85l9.23-15.66,1.81,18.07v2.41c.4,3.21,1.41,5.42,3.41,6.83,2.21,1.61,5.22,2.01,8.83,1.81,2.61-.2,5.22-1.2,7.43-3.01,2.61-2.01,5.22-4.82,7.43-8.03,2.41-3.61,4.82-7.43,7.03-11.84s4.22-8.83,6.22-13.25l5.42,2.41-5.62-2.01c0,.4-.2,1,0,1.81,0,.6.4,1.41.8,1.81.2.4.6.6,1,.8l-1-.6h0ZM253.86,422.26c2.41-2.01,4.62-4.82,6.83-8.43,2.41-4.01,4.82-8.43,7.03-13.65l5.42,2.41-5.62-2.01c.4-1.2.8-2.21,1.2-3.41.4-1,.8-2.01,1.2-3.01h0l.6-1.81,5.42,2.41-5.62-2.01c2.01-5.42,3.41-10.44,4.62-15.26,1-4.42,1.41-8.03,1-10.84,0-1-.2-1.81-.6-2.21h-.2.2c-.4,0-.8.2-1.41.6-1,.6-2.01,1.41-3.01,2.41-2.61,2.61-5.22,5.82-7.83,10.04-2.61,4.22-5.22,8.83-7.43,13.45-2.21,4.82-4.01,9.64-5.62,14.25-1.41,4.42-2.21,8.63-2.41,12.45v3.61c0,2.01.6,3.21,1,3.81h0c1,0,2.41-.8,3.81-2.41h0c0-.2,1.41-.4,1.41-.4ZM261.49,431.3l-3.81-4.42,4.01,4.22c-3.41,3.21-7.03,5.22-10.84,5.42-2.01,0-3.81,0-5.62-.8-1.61-.6-3.21-1.81-4.42-3.21-2.21-2.41-3.61-6.02-4.01-10.44v-5.22c.2-4.82,1.2-10.04,2.81-15.46,1.61-5.22,3.61-10.44,6.02-15.86,2.41-5.22,5.22-10.24,8.03-14.85,3.01-4.82,6.22-8.83,9.43-12.04,3.81-3.81,7.83-6.02,11.64-6.42,2.21-.2,4.22,0,6.02,1l-2.61,5.22,2.41-5.42c2.41,1,4.22,2.81,5.42,5.02,1,2.01,1.81,4.22,2.01,6.83.4,4.01,0,9.03-1.2,14.65-1.2,5.42-2.81,10.84-5.02,16.86h0l-.8,1.81-5.42-2.41,5.62,2.01c-.4,1.2-.8,2.21-1.2,3.41-.4,1-.8,2.01-1.2,3.01v.4c-2.61,5.62-5.22,10.64-8.03,15.06-2.81,4.62-6.02,8.43-9.23,11.24v.4h0Z"/>
  <path class="st1" d="M382.74,378.1c1.41.6,2.61,1.41,3.61,2.81.8,1,1.2,2.41,1.41,3.81,0,1.41,0,2.61-.4,3.61h0c-2.21,5.22-4.62,10.04-7.23,14.85-2.81,5.02-6.02,9.64-9.64,13.85-3.81,4.42-8.23,8.03-13.25,11.04-5.22,3.01-11.04,4.82-17.87,5.42-7.43.8-13.25,0-17.87-2.41-4.62-2.41-8.03-5.62-10.04-9.84-1.81-3.61-2.81-7.23-3.21-10.84v-5.22l5.82.4h-5.82c0-5.22,1-10.04,2.41-14.85,1.41-4.62,3.21-9.64,5.82-15.06,1.61-3.41,3.61-6.83,6.02-10.64,2.41-3.81,5.22-7.63,8.43-11.24,3.41-3.81,7.03-7.03,10.84-9.43,4.42-2.81,8.83-4.42,13.65-5.02h3.81c2.01,0,4.22.4,6.62,1.2,2.81,1,5.42,2.61,7.43,5.22l-4.62,3.61,4.42-4.01c2.61,2.81,4.01,6.22,4.42,10.44v5.62c-.2,2.01-.8,4.22-1.81,6.22l-5.42-2.41,5.42,2.21c-2.21,5.62-5.22,10.44-8.83,14.25-3.61,3.61-7.63,6.62-12.04,8.83-4.22,2.21-8.43,3.81-12.85,5.02-4.22,1.2-8.03,2.01-11.64,2.61l-1-5.82,5.42,2.41c-.2.4-.4,1-.6,1.61l-.6,2.61c-1,4.01-1.41,7.43-1.2,10.24.2,3.01,1.2,4.82,2.61,5.82,1.81,1.2,4.01,1.61,6.62,1.41h1.2l.6,5.82-.8-5.82c5.22-.8,10.24-3.61,15.06-8.63,5.22-5.62,10.24-13.85,15.26-25.29l5.42,2.41-5.62-2.01c.6-1.41,1.41-2.61,2.81-3.61,1-.8,2.41-1.2,3.81-1.41,1.41,0,2.61,0,3.61.4h0l-.2-.2ZM378.52,389.14c.6.2,1.2.4,1.81.2.6,0,1.2-.2,1.61-.6.8-.6,1.2-1.2,1.61-2.01h0c-5.42,12.85-11.24,22.28-17.46,28.91-6.62,7.03-13.85,11.04-21.88,12.24h-1.41c-5.42.6-10.04-.6-14.25-3.21-4.62-3.01-7.23-7.83-7.83-14.45-.4-4.22,0-9.03,1.41-14.45l.6-2.61c.2-1.2.6-2.21,1.2-3.41l1.2-3.01,3.21-.6c3.21-.6,6.62-1.41,10.44-2.41,3.61-1,7.03-2.41,10.64-4.22,3.21-1.61,6.22-3.81,9.03-6.62,2.61-2.61,4.62-6.02,6.42-10.24h0c.4-1.2.8-2.21.8-3.01v-3.01c0-1.61-.6-2.81-1.41-3.81h0c-.6-1-1.2-1.41-1.81-1.61-1.2-.4-2.21-.6-3.01-.6h-2.61c-2.81.2-5.62,1.41-8.43,3.21-3.01,2.01-6.02,4.62-8.63,7.43-2.81,3.21-5.22,6.42-7.23,9.64-2.21,3.41-3.81,6.62-5.22,9.43-2.21,4.82-4.01,9.23-5.22,13.25-1.2,3.81-1.81,7.83-2.01,11.64h0v3.21c.2,2.21,1,4.62,2.01,6.83.8,1.81,2.61,3.41,4.82,4.62,2.41,1.2,6.02,1.61,11.04,1.2,5.02-.6,9.43-1.81,13.05-4.01,3.81-2.21,7.23-5.02,10.24-8.43,3.21-3.61,6.02-7.63,8.43-11.84,2.61-4.42,4.82-9.03,6.83-13.45l5.42,2.41-5.62-2.01c-.2.6-.4,1.2-.2,1.81,0,.6.2,1.2.6,1.81.6.8,1.2,1.2,2.01,1.61h0l-.2.2ZM358.25,356.02h0s-.4,0-.6.2c-.6.4-1.41,1.2-2.41,2.01-2.21,2.41-4.42,5.42-6.83,9.03-2.41,3.81-4.62,7.63-6.83,11.84-2.21,4.22-4.01,8.03-5.62,11.44l-5.42-2.41-1.41-5.82c3.01-.8,6.62-1.81,10.64-3.41,3.61-1.41,7.23-3.61,10.44-6.42,3.01-2.61,5.22-5.82,6.62-10.04.8-2.21,1-4.22,1-5.82s0-1-.2-1.2h0c0,.2.4.4.6.6h-.4.4,0ZM357.04,344.18c3.61-.4,6.62.6,9.03,2.81,2.01,2.01,3.41,4.82,3.81,8.43.4,3.21,0,6.83-1.41,10.84-2.21,6.22-5.62,11.24-10.24,15.26-4.42,3.61-8.83,6.42-13.85,8.43-4.62,1.81-8.63,3.21-12.45,4.01l-11.64,2.61,5.02-10.84c1.61-3.61,3.61-7.63,6.02-12.04s4.82-8.63,7.43-12.85c2.61-4.22,5.42-7.63,8.03-10.64,3.41-3.81,6.83-5.82,10.44-6.02h-.2Z"/>
  <path class="st1" d="M399.2,385.33c-2.21,5.62-4.01,10.44-5.42,14.45-1.2,3.81-1.81,6.83-2.01,9.23v.8l-.4.8c.2-.6.4-1.2.2-1.81v.8c0,.4.4.6.6,1s.8.6,1.81.8l-1,5.82.6-5.82h2.81c2.21-.2,4.42-1,6.22-2.41,2.21-1.61,4.42-3.81,6.22-6.02,2.01-2.61,3.61-5.02,5.02-7.43,1.41-2.61,2.41-4.42,3.01-5.82h0c1-1.81,1.81-3.61,2.61-5.42.8-2.01,1.61-3.81,2.61-5.82l5.42,2.41-5.62-2.01c.6-1.41,1.41-2.61,2.81-3.61,1-.8,2.41-1.2,3.81-1.41,1.41,0,2.61,0,3.61.4h.8c1.2.8,2.21,1.81,3.01,3.01.6,1,1,2.21,1.2,3.61,0,1.41,0,2.61-.4,3.61h0c-2.41,5.62-4.82,11.04-7.43,16.26-2.81,5.82-6.02,10.64-9.64,14.85-4.22,4.82-8.63,8.03-13.25,9.84-4.01,1.61-8.03,2.61-11.84,3.01-6.62.6-12.04-.6-16.46-3.61-4.82-3.21-7.43-8.23-8.23-15.06-.8-6.83,1-15.66,5.22-26.3l12.45-31.32c1.41-3.61,3.01-7.43,4.82-11.24,1.81-4.01,3.61-7.83,5.62-11.44,2.61-4.62,5.22-9.23,7.83-13.45,2.81-4.62,5.82-8.43,8.83-11.84,4.22-4.82,8.23-8.03,11.84-9.84,3.61-1.61,6.62-2.61,9.23-3.01h3.21c1.2,0,2.21.2,3.01.6l-2.01,5.62,1.2-5.82c3.01.6,5.42,2.21,7.03,4.82,1.2,2.01,2.01,4.22,2.21,6.83.4,4.01-.4,8.63-2.61,14.05-2.01,4.82-5.02,10.24-9.03,15.86-3.81,5.42-8.63,11.04-14.05,16.66-5.42,5.62-11.64,11.04-18.67,16.26l-3.41-4.82,5.42,2.21-9.23,22.08h0l.4-.4ZM388.16,380.71l9.84-23.49,1.41-1c6.42-4.62,12.04-9.64,17.06-14.85,5.02-5.22,9.43-10.44,12.85-15.46,3.41-4.82,6.02-9.23,7.63-13.45,1.41-3.61,2.01-6.42,1.81-8.43,0-.8-.2-1.41-.4-1.81,0,.2.4.4.6.4h-.8c.2-.2.6-.2.8,0h-1.61c-1.2,0-3.01.8-5.42,1.81-2.21,1-5.02,3.41-8.23,7.03-2.61,2.81-5.22,6.22-7.63,10.24-2.61,4.22-5.02,8.43-7.43,12.85-1.81,3.41-3.61,7.03-5.22,10.64-1.61,3.81-3.21,7.43-4.62,10.84l-12.45,31.32c-3.41,8.83-5.02,15.66-4.42,20.68.4,3.01,1.41,5.22,3.01,6.42,2.01,1.41,5.02,1.81,8.63,1.61,2.81-.2,5.62-1,8.83-2.21,2.61-1,5.42-3.21,8.43-6.42,3.01-3.41,5.62-7.63,8.03-12.45,2.61-5.22,5.02-10.44,7.23-15.66l5.42,2.41-5.62-2.01c-.2.6-.4,1.2-.2,1.81,0,.6.2,1,.6,1.41.4.6.8,1,1.41,1.41l2.81-5.22-2.01,5.62c.6.2,1.2.4,1.81.2.6,0,1.2-.2,1.61-.6.8-.6,1.2-1.2,1.61-2.01h0c-.8,2.21-1.81,4.22-2.61,6.22s-1.81,4.01-2.81,6.02l-5.22-2.61,5.42,2.61c-.8,1.61-1.81,3.61-3.41,6.42-1.61,2.81-3.61,5.82-5.82,8.83-2.41,3.21-5.42,6.02-8.63,8.43-3.61,2.61-7.63,4.22-12.04,4.62h-5.22c-3.81-.6-6.62-2.21-8.83-4.62-2.01-2.21-3.21-4.82-3.41-7.63v-.8c-.2-1.2,0-2.41.4-3.41l5.62,2.01-5.82-.6c.2-3.21,1.2-7.03,2.61-11.64,1.41-4.42,3.21-9.43,5.62-15.46h-1.2,0ZM434.93,304.43c0,.4,0,.6.2.8.4.6,1,.8,1.61,1h.8-.4c-.4,0-.8.4-1.41,1-2.61,2.01-5.42,5.82-8.23,11.44-3.21,6.42-7.03,14.85-11.24,24.89l-5.02,11.84-5.42-2.21-3.81-4.62c7.23-6.02,13.45-12.04,18.47-18.27,5.02-6.22,8.83-11.84,11.24-16.86,1.2-2.41,2.01-4.42,2.61-6.22.4-1.41.6-2.41.4-3.21v.4h.2ZM446.77,303.23c.4,4.01-1,9.23-4.22,15.86-2.81,5.82-7.03,12.24-12.65,19.07-5.62,6.83-12.24,13.45-20.07,20.07l-9.23-6.83,5.02-12.04c4.42-10.24,8.23-18.67,11.64-25.49,3.61-7.43,7.63-12.65,11.64-15.66,2.61-2.01,5.22-3.21,7.63-3.41,1.41,0,2.81,0,4.01.4,1.61.4,2.81,1.41,3.81,2.61,1.41,1.61,2.21,3.41,2.41,5.42h0Z"/>
  <path class="st1" d="M447.37,380.31c-2.21,5.62-4.01,10.44-5.42,14.45-1.2,3.81-1.81,6.83-2.01,9.23v.8l-.4.8c.2-.6.4-1.2.2-1.81v.8c0,.4.4.6.6,1,.2.4.8.6,1.81.8l-1,5.82.6-5.82h2.81c2.21-.2,4.42-1,6.22-2.41,2.21-1.61,4.42-3.81,6.22-6.02,2.01-2.61,3.61-5.02,5.02-7.43,1.41-2.61,2.41-4.42,3.01-5.82h0c1-1.81,1.81-3.61,2.61-5.42.8-2.01,1.61-3.81,2.61-5.82l5.42,2.41-5.62-2.01c.6-1.41,1.41-2.61,2.81-3.61,1-.8,2.41-1.2,3.81-1.41,1.41,0,2.61,0,3.61.4h.8c1.2.8,2.21,1.81,3.01,3.01.6,1,1,2.21,1.2,3.61,0,1.41,0,2.61-.4,3.61h0c-2.41,5.62-4.82,11.04-7.43,16.26-2.81,5.82-6.02,10.64-9.64,14.85-4.22,4.82-8.63,8.03-13.25,9.84-4.01,1.61-8.03,2.61-11.84,3.01-6.62.6-12.04-.6-16.46-3.61-4.82-3.21-7.43-8.23-8.23-15.06s1-15.66,5.22-26.3l12.45-31.32c1.41-3.61,3.01-7.43,4.82-11.24,1.81-4.01,3.61-7.83,5.62-11.44,2.61-4.62,5.22-9.23,7.83-13.45,2.81-4.62,5.82-8.43,8.83-11.84,4.22-4.82,8.23-8.03,11.84-9.84,3.61-1.61,6.62-2.61,9.23-3.01h3.21c1.2,0,2.21.2,3.01.6l-2.01,5.62,1.2-5.82c3.01.6,5.42,2.21,7.03,4.82,1.2,2.01,2.01,4.22,2.21,6.83.4,4.01-.4,8.63-2.61,14.05-2.01,4.82-5.02,10.24-9.03,15.86-3.81,5.42-8.63,11.04-14.05,16.66-5.42,5.62-11.64,11.04-18.67,16.26l-3.41-4.82,5.42,2.21-9.23,22.08h0l.4-.4h0ZM436.33,375.69l9.84-23.49,1.41-1c6.42-4.62,12.04-9.64,17.06-14.85,5.02-5.22,9.43-10.44,12.85-15.46,3.41-4.82,6.02-9.23,7.63-13.45,1.41-3.61,2.01-6.42,1.81-8.43,0-.8-.2-1.41-.4-1.81,0,.2.4.4.6.4h-.8c.2-.2.6-.2.8,0h-1.61c-1.2,0-3.01.8-5.42,1.81-2.21,1-5.02,3.41-8.23,7.03-2.61,2.81-5.22,6.22-7.63,10.24-2.61,4.22-5.02,8.43-7.43,12.85-1.81,3.41-3.61,7.03-5.22,10.64-1.61,3.81-3.21,7.43-4.62,10.84l-12.45,31.32c-3.41,8.83-5.02,15.66-4.42,20.68.4,3.01,1.41,5.22,3.01,6.42,2.01,1.41,5.02,1.81,8.63,1.61,2.81-.2,5.62-1,8.83-2.21,2.61-1,5.42-3.21,8.43-6.42,3.01-3.41,5.62-7.63,8.03-12.45,2.61-5.22,5.02-10.44,7.23-15.66l5.42,2.41-5.62-2.01c-.2.6-.4,1.2-.2,1.81,0,.6.2,1,.6,1.41.4.6.8,1,1.41,1.41l2.81-5.22-2.01,5.62c.6.2,1.2.4,1.81.2.6,0,1.2-.2,1.61-.6.8-.6,1.2-1.2,1.61-2.01h0c-.8,2.21-1.81,4.22-2.61,6.22s-1.81,4.01-2.81,6.02l-5.22-2.61,5.42,2.61c-.8,1.61-1.81,3.61-3.41,6.42-1.61,2.81-3.61,5.82-5.82,8.83-2.41,3.21-5.42,6.02-8.63,8.43-3.61,2.61-7.63,4.22-12.04,4.62h-5.22c-3.81-.6-6.62-2.21-8.83-4.62-2.01-2.21-3.21-4.82-3.41-7.63v-.8c-.2-1.2,0-2.41.4-3.41l5.62,2.01-5.82-.6c.2-3.21,1.2-7.03,2.61-11.64,1.41-4.42,3.21-9.43,5.62-15.46h-1.2,0ZM483.11,299.61c0,.4,0,.6.2.8.4.6,1,.8,1.61,1h.8-.4c-.4,0-.8.4-1.41,1-2.61,2.01-5.42,5.82-8.23,11.44-3.21,6.42-7.03,14.85-11.24,24.89l-5.02,11.84-5.42-2.21-3.81-4.62c7.23-6.02,13.45-12.04,18.47-18.27,5.02-6.22,8.83-11.84,11.24-16.86,1.2-2.41,2.01-4.42,2.61-6.22.4-1.41.6-2.41.4-3.21v.4h.2ZM494.95,298.41c.4,4.01-1,9.23-4.22,15.86-2.81,5.82-7.03,12.24-12.65,19.07s-12.24,13.45-20.07,20.07l-9.23-6.83,5.02-12.04c4.42-10.24,8.23-18.67,11.64-25.49,3.61-7.43,7.63-12.65,11.64-15.66,2.61-2.01,5.22-3.21,7.63-3.41,1.41,0,2.81,0,4.01.4,1.61.4,2.81,1.41,3.81,2.61,1.41,1.61,2.21,3.41,2.41,5.42h0Z"/>
  <path class="st1" d="M539.71,362.04c1.41.6,2.61,1.41,3.61,2.81.8,1,1.2,2.41,1.41,3.81,0,1.41,0,2.61-.4,3.61h0c-2.21,5.22-4.62,10.04-7.23,14.85-2.81,5.02-6.02,9.64-9.64,13.85-3.81,4.42-8.23,8.03-13.25,11.04-5.22,3.01-11.04,4.82-17.87,5.42-7.43.8-13.25,0-17.87-2.41-4.62-2.41-8.03-5.62-10.04-9.84-1.81-3.61-2.81-7.23-3.21-10.84v-5.22l5.82.4h-5.82c0-5.22,1-10.04,2.41-14.85,1.41-4.62,3.21-9.64,5.82-15.06,1.61-3.41,3.61-6.83,6.02-10.64,2.41-3.81,5.22-7.63,8.43-11.24,3.41-3.81,7.03-7.03,10.84-9.43,4.42-2.81,8.83-4.42,13.65-5.02h3.81c2.01,0,4.22.4,6.62,1.2,2.81,1,5.42,2.61,7.43,5.22l-4.62,3.61,4.42-4.01c2.61,2.81,4.01,6.22,4.42,10.44v5.62c-.2,2.01-.8,4.22-1.81,6.22l-5.42-2.41,5.42,2.21c-2.21,5.62-5.22,10.44-8.83,14.25-3.61,3.61-7.63,6.62-12.04,8.83-4.22,2.21-8.43,3.81-12.85,5.02-4.22,1.2-8.03,2.01-11.64,2.61l-1-5.82,5.42,2.41c-.2.4-.4,1-.6,1.61l-.6,2.61c-1,4.01-1.41,7.43-1.2,10.24.2,3.01,1.2,4.82,2.61,5.82,1.81,1.2,4.01,1.61,6.62,1.41h1.2l.6,5.82-.8-5.82c5.22-.8,10.24-3.61,15.06-8.63,5.22-5.62,10.24-13.85,15.26-25.29l5.42,2.41-5.62-2.01c.6-1.41,1.41-2.61,2.81-3.61,1-.8,2.41-1.2,3.81-1.41,1.41,0,2.61,0,3.61.4h-.2v-.2ZM535.7,373.08c.6.2,1.2.4,1.81.2.6,0,1.2-.2,1.61-.6.8-.6,1.2-1.2,1.61-2.01h0c-5.42,12.85-11.24,22.28-17.46,28.91-6.62,7.03-13.85,11.04-21.88,12.24h-1.41c-5.42.6-10.04-.6-14.25-3.21-4.62-3.01-7.23-7.83-7.83-14.45-.4-4.22,0-9.03,1.41-14.45l.6-2.61c.2-1.2.6-2.21,1.2-3.41l1.2-3.01,3.21-.6c3.21-.6,6.62-1.41,10.44-2.41,3.61-1,7.03-2.41,10.64-4.22,3.21-1.61,6.22-3.81,9.03-6.62,2.61-2.61,4.62-6.02,6.42-10.24h0c.4-1.2.8-2.21.8-3.01v-3.01c0-1.61-.6-2.81-1.41-3.81h0c-.6-1-1.2-1.41-1.81-1.61-1.2-.4-2.21-.6-3.01-.6h-2.61c-2.81.2-5.62,1.41-8.43,3.21-3.01,2.01-6.02,4.62-8.63,7.43-2.81,3.21-5.22,6.42-7.23,9.64-2.21,3.41-3.81,6.62-5.22,9.43-2.21,4.82-4.01,9.23-5.22,13.25-1.2,3.81-1.81,7.83-2.01,11.64h0v3.21c.2,2.21,1,4.62,2.01,6.83.8,1.81,2.61,3.41,4.82,4.62,2.41,1.2,6.02,1.61,11.04,1.2,5.02-.6,9.43-1.81,13.05-4.01,3.81-2.21,7.23-5.02,10.24-8.43,3.21-3.61,6.02-7.63,8.43-11.84,2.61-4.42,4.82-9.03,6.83-13.45l5.42,2.41-5.62-2.01c-.2.6-.4,1.2-.2,1.81,0,.6.2,1.2.6,1.81.6.8,1.2,1.2,2.01,1.61h0l-.2.2ZM515.42,339.96h0s-.4,0-.6.2c-.6.4-1.41,1.2-2.41,2.01-2.21,2.41-4.42,5.42-6.83,9.03-2.41,3.81-4.62,7.63-6.83,11.84-2.21,4.22-4.01,8.03-5.62,11.44l-5.42-2.41-1.41-5.82c3.01-.8,6.62-1.81,10.64-3.41,3.61-1.41,7.23-3.61,10.44-6.42,3.01-2.61,5.22-5.82,6.62-10.04.8-2.21,1-4.22,1-5.82s0-1-.2-1.2h0c0,.2.4.4.6.6h-.4.4ZM514.22,328.12c3.61-.4,6.62.6,9.03,2.81,2.01,2.01,3.41,4.82,3.81,8.43.4,3.21,0,6.83-1.41,10.84-2.21,6.22-5.62,11.24-10.24,15.26-4.42,3.61-8.83,6.42-13.85,8.43-4.62,1.81-8.63,3.21-12.45,4.01l-11.64,2.61,5.02-10.84c1.61-3.61,3.61-7.63,6.02-12.04s4.82-8.63,7.43-12.85c2.61-4.22,5.42-7.63,8.03-10.64,3.41-3.81,6.83-5.82,10.44-6.02h-.2Z"/>
  <path class="st0" d="M321.11,390.35c.8.4,1.2,1,1.41,1.81,0,.2,0,.6-.2,1-2.01,4.42-4.22,9.03-6.42,13.65-2.21,4.42-4.62,8.63-7.43,12.45-2.61,3.81-5.42,7.03-8.63,9.43-3.21,2.41-6.62,3.81-10.44,4.22-5.22.6-9.43-.4-12.85-2.81-3.41-2.41-5.42-6.02-5.82-11.04v-2.41c-3.41,5.82-7.03,10.64-10.84,14.25-3.81,3.61-7.83,5.62-11.84,6.02h-.6c-3.81.4-6.83,0-9.23-1.41-2.41-1.41-4.22-3.41-5.42-6.02-1.2-2.61-2.01-5.22-2.21-8.03v-3.61c0-4.62,1-9.43,2.21-14.85,1.41-5.22,3.41-10.44,5.82-15.66,3.81-8.03,7.83-14.65,11.64-19.47,3.81-4.82,7.63-8.23,11.44-10.44,3.81-2.21,7.23-3.41,10.44-3.81h3.81c1.2,0,2.41.4,3.41.6,2.21.6,4.01,2.01,5.22,3.81,1.2,2.01,1.81,4.42,2.21,7.23,0,1.61.2,3.41,0,5.42l26.1-60.22,13.45-1.41-38.94,88.53c-2.01,4.62-3.61,8.83-4.82,12.45-1.2,3.61-1.81,7.03-1.41,10.44,0,1.41.8,3.01,1.81,4.62s2.81,2.41,5.22,2.61h1.81c1.81,0,3.81-.8,5.82-2.01,2.21-1.2,4.42-3.21,6.83-6.22,3.01-3.41,5.82-7.43,8.43-12.45,2.61-5.02,5.22-10.04,7.63-15.66.2-.6.8-1,1.61-1h1-.2ZM257.68,426.88c2.81-2.41,5.62-5.62,8.03-9.84,2.61-4.22,5.02-9.03,7.43-14.45.4-1,.8-2.21,1.2-3.21.4-1,.8-2.21,1.41-3.21l.6-1.41c2.01-5.62,3.61-11.04,4.82-16.06,1.2-5.02,1.41-9.43,1.2-12.85-.4-3.81-1.81-6.22-4.01-7.23-.8-.4-1.81-.6-2.81-.4-2.41.2-5.02,1.81-8.03,4.62-3.01,2.81-5.82,6.62-8.63,11.04-2.81,4.42-5.42,9.23-7.63,14.05-2.41,5.02-4.42,10.24-5.82,15.06-1.61,5.02-2.41,9.64-2.61,13.85v4.42c.4,3.21,1.2,5.62,2.61,7.23,1.41,1.61,3.01,2.21,5.02,2.01,2.41-.2,4.82-1.61,7.43-4.01v.4h-.2Z"/>
  <path class="st0" d="M380.53,383.72c.6.2,1,.8,1.2,1.61v1c-2.01,4.82-4.42,9.43-7.03,14.05-2.61,4.62-5.62,9.03-9.03,12.85-3.41,4.01-7.23,7.23-11.64,9.84-4.42,2.61-9.64,4.22-15.46,4.62-6.22.6-11.04,0-14.45-1.81s-5.82-4.22-7.43-7.23c-1.41-3.01-2.41-6.02-2.61-9.03v-4.22c0-4.42.8-8.83,2.21-13.05,1.2-4.42,3.01-9.03,5.62-14.05,1.41-3.21,3.41-6.42,5.62-10.04,2.21-3.61,4.82-7.03,7.83-10.44s6.22-6.22,9.84-8.43c3.61-2.21,7.23-3.61,11.04-4.01h3.21c1.41,0,3.21.2,4.82.8,1.81.6,3.21,1.61,4.62,3.21,1.61,1.81,2.61,4.22,3.01,7.23v4.22c0,1.41-.6,3.01-1.41,4.62-2.01,5.02-4.42,9.03-7.63,12.24-3.21,3.21-6.62,5.82-10.44,7.83-3.81,2.01-7.83,3.61-11.64,4.62-4.01,1-7.63,2.01-11.04,2.41-.4.8-.6,1.61-.8,2.41-.2.8-.4,1.81-.6,2.61-1.2,4.82-1.61,8.83-1.2,12.45.4,4.82,2.21,8.23,5.22,10.24,3.01,2.01,6.42,2.81,10.44,2.21h1.2c6.62-1,12.85-4.62,18.47-10.64,5.62-6.02,11.04-15.06,16.26-26.9.2-.6.8-1,1.61-1.2h1-.8ZM357.64,350c-2.01,0-4.22,1.61-6.62,4.22s-5.02,6.02-7.43,9.84c-2.41,3.81-4.82,8.03-7.03,12.24s-4.22,8.23-5.82,11.64c3.41-.8,7.23-2.01,11.44-3.81,4.22-1.61,8.23-4.22,12.04-7.43,3.81-3.21,6.62-7.43,8.43-12.65,1-3.21,1.41-6.02,1.2-8.23-.4-4.42-2.61-6.42-6.42-6.02h0l.2.2Z"/>
  <path class="st0" d="M393.58,382.92c-2.41,5.82-4.22,10.64-5.42,14.85-1.2,4.22-2.01,7.63-2.21,10.44v1.61c0,1.61.8,3.01,2.01,4.42,1.2,1.41,3.01,2.21,5.42,2.61h4.01c3.41-.4,6.42-1.61,9.23-3.61,2.81-2.01,5.22-4.42,7.43-7.23,2.21-2.81,4.01-5.42,5.42-8.23,1.41-2.61,2.61-4.62,3.21-6.02,1-2.01,1.81-3.81,2.81-5.82.8-2.01,1.81-3.81,2.61-5.82.2-.6.8-1,1.61-1h1c.6.4,1,1,1.2,1.81v1c-2.21,5.22-4.82,10.64-7.43,15.86-2.61,5.22-5.62,9.84-9.03,13.65-3.61,4.01-7.23,6.83-10.84,8.23-3.61,1.41-7.03,2.21-10.24,2.61-5.02.6-9.23-.4-12.45-2.61-3.21-2.21-5.02-5.82-5.62-10.64-.6-6.02,1-13.85,4.82-23.49l12.45-31.32c1.41-3.61,3.01-7.23,4.62-11.04,1.81-3.81,3.61-7.43,5.42-11.04,2.61-4.62,5.02-9.03,7.63-13.25s5.42-7.83,8.23-11.04c3.61-4.22,7.03-7.03,10.04-8.43,3.01-1.41,5.42-2.21,7.43-2.41h3.41c1.41.2,2.61,1,3.21,2.21.8,1.2,1.2,2.61,1.41,4.22.4,3.01-.4,6.83-2.21,11.24-1.81,4.42-4.62,9.23-8.23,14.65-3.81,5.22-8.23,10.64-13.45,16.06s-11.24,10.64-17.87,15.46l-9.23,22.08h-.4,0ZM440.95,303.83c0-.8-.4-1.61-1-2.21-.6-.8-1.41-1-2.81-.8-1.41,0-3.01.8-4.82,2.21-3.41,2.41-6.62,7.03-9.84,13.65s-7.03,15.06-11.44,25.09l-5.02,11.84c7.63-6.22,14.05-12.65,19.27-19.27,5.22-6.42,9.23-12.45,11.84-17.87s3.81-9.64,3.61-12.65h.2Z"/>
  <path class="st0" d="M441.75,378.1c-2.41,5.82-4.22,10.64-5.42,14.85s-2.01,7.63-2.21,10.44v1.61c0,1.61.8,3.01,2.01,4.42s3.01,2.21,5.42,2.61h4.01c3.41-.4,6.42-1.61,9.23-3.61,2.81-2.01,5.22-4.42,7.43-7.23s4.01-5.42,5.42-8.23c1.41-2.61,2.61-4.62,3.21-6.02,1-2.01,1.81-3.81,2.81-5.82.8-2.01,1.81-3.81,2.61-5.82.2-.6.8-1,1.61-1h1c.6.4,1,1,1.2,1.81v1c-2.21,5.22-4.82,10.64-7.43,15.86-2.61,5.22-5.62,9.84-9.03,13.65-3.61,4.01-7.23,6.83-10.84,8.23s-7.03,2.21-10.24,2.61c-5.02.6-9.23-.4-12.45-2.61s-5.02-5.82-5.62-10.64c-.6-6.02,1-13.85,4.82-23.49l12.45-31.32c1.41-3.61,3.01-7.23,4.62-11.04,1.81-3.81,3.61-7.43,5.42-11.04,2.61-4.62,5.02-9.03,7.63-13.25s5.42-7.83,8.23-11.04c3.61-4.22,7.03-7.03,10.04-8.43,3.01-1.41,5.42-2.21,7.43-2.41h3.41c1.41.2,2.61,1,3.21,2.21.8,1.2,1.2,2.61,1.41,4.22.4,3.01-.4,6.83-2.21,11.24-1.81,4.42-4.62,9.23-8.23,14.65-3.81,5.22-8.23,10.64-13.45,16.06s-11.24,10.64-17.87,15.46l-9.23,22.08h-.4ZM488.93,299.01c0-.8-.4-1.61-1-2.21-.6-.8-1.41-1-2.81-.8-1.41,0-3.01.8-4.82,2.21-3.41,2.41-6.62,7.03-9.84,13.65-3.21,6.62-7.03,15.06-11.44,25.09l-5.02,11.84c7.63-6.22,14.05-12.65,19.27-19.27,5.22-6.42,9.23-12.45,11.84-17.87s3.81-9.64,3.61-12.65h.2Z"/>
  <path class="st0" d="M537.71,367.66c.6.2,1,.8,1.2,1.61v1c-2.01,4.82-4.42,9.43-7.03,14.05-2.61,4.62-5.62,9.03-9.03,12.85-3.41,4.01-7.23,7.23-11.64,9.84-4.42,2.61-9.64,4.22-15.46,4.62-6.22.6-11.04,0-14.45-1.81-3.41-1.81-5.82-4.22-7.43-7.23-1.41-3.01-2.41-6.02-2.61-9.03v-4.22c0-4.42.8-8.83,2.21-13.05,1.2-4.42,3.01-9.03,5.62-14.05,1.41-3.21,3.41-6.42,5.62-10.04,2.21-3.61,4.82-7.03,7.83-10.44s6.22-6.22,9.84-8.43c3.61-2.21,7.23-3.61,11.04-4.01h3.21c1.41,0,3.21.2,4.82.8,1.81.6,3.21,1.61,4.62,3.21,1.61,1.81,2.61,4.22,3.01,7.23v4.22c0,1.41-.6,3.01-1.41,4.62-2.01,5.02-4.42,9.03-7.63,12.24-3.21,3.21-6.62,5.82-10.44,7.83-3.81,2.01-7.83,3.61-11.64,4.62-4.01,1-7.63,2.01-11.04,2.41-.4.8-.6,1.61-.8,2.41s-.4,1.81-.6,2.61c-1.2,4.82-1.61,8.83-1.2,12.45.4,4.82,2.21,8.23,5.22,10.24,3.01,2.01,6.42,2.81,10.44,2.21h1.2c6.62-1,12.85-4.62,18.47-10.64,5.62-6.02,11.04-15.06,16.26-26.9.2-.6.8-1,1.61-1.2h1-.8ZM514.82,333.94c-2.01,0-4.22,1.61-6.62,4.22-2.41,2.61-5.02,6.02-7.43,9.84s-4.82,8.03-7.03,12.24c-2.21,4.22-4.22,8.23-5.82,11.64,3.41-.8,7.23-2.01,11.44-3.81,4.22-1.61,8.23-4.22,12.04-7.43,3.81-3.21,6.62-7.43,8.43-12.65,1-3.21,1.41-6.02,1.2-8.23-.4-4.42-2.61-6.42-6.42-6.02h0l.2.2Z"/>
</svg>